<svg display="none" xmlns="http://www.w3.org/2000/svg">
  <symbol id="services-icon-1" viewBox="0 0 53 52">
    <g clip-path="url(#clip0_40771_491)">
    <path d="M50.9766 27.5234C51.8179 27.5234 52.5 26.8413 52.5 26V14.625C52.5 13.7837 51.8179 13.1016 50.9766 13.1016C49.9146 13.1016 29.168 13.1016 28.0234 13.1016V3.25C28.0234 2.40866 27.3413 1.72656 26.5 1.72656H10.25C9.40866 1.72656 8.72656 2.40866 8.72656 3.25V13.1016H2.02344C1.18209 13.1016 0.5 13.7837 0.5 14.625V26C0.5 26.8413 1.18209 27.5234 2.02344 27.5234H8.72656V35.8516H2.02344C1.18209 35.8516 0.5 36.5337 0.5 37.375V48.75C0.5 49.5913 1.18209 50.2734 2.02344 50.2734H50.9766C51.8179 50.2734 52.5 49.5913 52.5 48.75V37.375C52.5 36.5337 51.8179 35.8516 50.9766 35.8516H44.2734V27.5234H50.9766ZM49.4531 24.4766C47.8232 24.4766 37.7597 24.4766 36.1484 24.4766V16.1484H49.4531V24.4766ZM33.1016 24.4766C31.5059 24.4766 21.5046 24.4766 19.8984 24.4766V16.1484H33.1016V24.4766ZM11.7734 4.77344H24.9766V13.1016C23.3809 13.1016 13.3796 13.1016 11.7734 13.1016V4.77344ZM3.54688 24.4766V16.1484H16.8516V24.4766C15.2396 24.4766 5.17645 24.4766 3.54688 24.4766ZM11.7734 27.5234H24.9766V35.8516C23.3809 35.8516 13.3796 35.8516 11.7734 35.8516V27.5234ZM3.54688 38.8984H16.8516V47.2266H3.54688V38.8984ZM19.8984 38.8984H33.1016V47.2266H19.8984V38.8984ZM49.4531 38.8984V47.2266H36.1484V38.8984H49.4531ZM41.2266 35.8516C39.6309 35.8516 29.6296 35.8516 28.0234 35.8516V27.5234H41.2266V35.8516Z"/>
    </g>
  </symbol>
  <symbol id="services-icon-2" viewBox="0 0 53 52">
    <g clip-path="url(#clip0_40771_419)">
      <path d="M46.4062 3.14844C44.1552 3.14844 42.1854 4.37521 41.1303 6.19531H2.02344C1.18209 6.19531 0.5 6.87741 0.5 7.71875V47.3281C0.5 48.1695 1.18209 48.8516 2.02344 48.8516H46.4062C49.7663 48.8516 52.5 46.1179 52.5 42.7578V9.24219C52.5 5.88209 49.7663 3.14844 46.4062 3.14844ZM46.4062 45.8047C45.8103 45.8047 4.1011 45.8047 3.54688 45.8047V9.24219H40.3125V42.7578C40.3125 43.5992 40.9946 44.2812 41.8359 44.2812C42.6773 44.2812 43.3594 43.5992 43.3594 42.7578C43.3594 41.0778 44.7262 39.7109 46.4062 39.7109C48.0863 39.7109 49.4531 41.0778 49.4531 42.7578C49.4531 44.4379 48.0863 45.8047 46.4062 45.8047ZM49.4531 37.4818C48.5563 36.9619 47.5153 36.6641 46.4062 36.6641C45.2972 36.6641 44.2562 36.9619 43.3594 37.4818V9.24219C43.3594 7.56214 44.7262 6.19531 46.4062 6.19531C48.0863 6.19531 49.4531 7.56214 49.4531 9.24219V37.4818Z"/>
      <path d="M35.6406 12.2891H8.21875C7.37741 12.2891 6.69531 12.9712 6.69531 13.8125V41.2344C6.69531 42.0757 7.37741 42.7578 8.21875 42.7578H23.4531C23.8572 42.7578 24.2446 42.5972 24.5303 42.3115C24.8161 42.0259 24.9766 41.6384 24.9766 41.2344V38.1875C24.9766 36.2013 26.2501 34.507 28.0234 33.8782V41.2344C28.0234 42.0757 28.7055 42.7578 29.5469 42.7578H35.6406C36.482 42.7578 37.1641 42.0757 37.1641 41.2344V13.8125C37.1641 12.9712 36.482 12.2891 35.6406 12.2891ZM34.1172 39.7109H31.0703V32.0938C31.0703 31.2524 30.3882 30.5703 29.5469 30.5703C25.3468 30.5703 21.9297 33.9874 21.9297 38.1875V39.7109H9.74219V30.5703H15.8359V35.1406C15.8359 35.982 16.518 36.6641 17.3594 36.6641C18.2007 36.6641 18.8828 35.982 18.8828 35.1406V29.0469C18.8828 28.2055 18.2007 27.5234 17.3594 27.5234H9.74219V15.3359H18.8828V21.4297H14.3125C13.4712 21.4297 12.7891 22.1118 12.7891 22.9531C12.7891 23.7945 13.4712 24.4766 14.3125 24.4766H20.4062H26.5C27.3413 24.4766 28.0234 23.7945 28.0234 22.9531C28.0234 22.1118 27.3413 21.4297 26.5 21.4297H21.9297V15.3359H34.1172V39.7109Z"/>
    </g>
  </symbol>
  <symbol id="services-icon-3" viewBox="0 0 53 52">
    <g clip-path="url(#clip0_40771_399)">
      <path d="M11.2656 36.6641C8.74555 36.6641 6.69531 38.7143 6.69531 41.2344C6.69531 43.7544 8.74555 45.8047 11.2656 45.8047C13.7857 45.8047 15.8359 43.7544 15.8359 41.2344C15.8359 38.7143 13.7857 36.6641 11.2656 36.6641ZM11.2656 42.7578C10.4256 42.7578 9.74219 42.0744 9.74219 41.2344C9.74219 40.3944 10.4256 39.7109 11.2656 39.7109C12.1056 39.7109 12.7891 40.3944 12.7891 41.2344C12.7891 42.0744 12.1056 42.7578 11.2656 42.7578Z"/>
      <path d="M49.7504 30.9497C50.7897 29.5433 50.9811 27.582 50.0361 25.9454L43.9455 15.2945C42.8919 13.4696 40.6701 12.6369 38.6882 13.1667C39.1102 11.2698 38.2823 9.23477 36.5124 8.21295L25.9584 2.11961C24.4511 1.24922 22.6489 1.33839 21.2628 2.19568C20.4596 0.880141 19.0104 0 17.3594 0H5.07031C2.55024 0 0.5 2.05024 0.5 4.57031C0.5 5.62707 0.5 46.2132 0.5 47.4297C0.5 49.9498 2.55024 52 5.07031 52C6.25382 52 42.1374 52 47.9297 52C50.4498 52 52.5 49.9498 52.5 47.4297V35.1406C52.5 33.2675 51.3669 31.6547 49.7504 30.9497ZM18.8828 47.4297C18.8828 48.2697 18.1994 48.9531 17.3594 48.9531H5.07031C4.23029 48.9531 3.54688 48.2697 3.54688 47.4297C3.54688 46.7337 3.54688 34.2857 3.54688 33.6172H18.8828V47.4297ZM18.8828 30.5703H3.54688V18.2812H18.8828V30.5703ZM18.8828 15.2344H3.54688V4.57031C3.54688 3.73029 4.23029 3.04688 5.07031 3.04688H17.3594C18.1994 3.04688 18.8828 3.73029 18.8828 4.57031V15.2344ZM21.9297 6.04988L22.3533 5.31609C22.7736 4.58839 23.7073 4.33814 24.4349 4.75831L34.989 10.8516C35.7167 11.2718 35.9668 12.2056 35.5456 12.9353L33.7853 15.9951C33.7412 16.0602 33.7016 16.1278 33.6683 16.1984L21.9297 36.6026V6.04988ZM21.9297 42.7126L36.171 17.9581L39.1156 16.258C39.8621 15.8271 40.8859 16.0888 41.3037 16.8125L47.3944 27.4633C47.8156 28.1929 47.57 29.1283 46.8328 29.5539C45.7449 30.1837 23.0011 43.3507 21.9297 43.971V42.7126ZM49.4531 47.4297C49.4531 48.2697 48.7697 48.9531 47.9297 48.9531H21.6677C21.8301 48.4951 21.9212 48.0039 21.9282 47.4926L45.8954 33.6172H47.9297C48.7697 33.6172 49.4531 34.3006 49.4531 35.1406V47.4297Z"/>
    </g>
  </symbol>
  <symbol id="services-icon-4" viewBox="0 0 53 52">
    <path d="M43.3594 4.57031C43.3594 2.05029 41.3091 0 38.7891 0H8.32031C5.80029 0 3.75 2.05029 3.75 4.57031V13.7109C3.75 16.231 5.80029 18.2813 8.32031 18.2813H38.7891C41.3091 18.2813 43.3594 16.231 43.3594 13.7109V12.1875H44.8828C45.7227 12.1875 46.4063 12.8711 46.4063 13.7109V19.8047C46.4063 20.6446 45.7227 21.3281 44.8828 21.3281H26.6016C24.0815 21.3281 22.0313 23.3784 22.0313 25.8984V30.4688H20.5078C19.6664 30.4688 18.9844 31.1507 18.9844 31.9922V38.003L17.4609 44.1952C16.4703 48.1573 19.464 52 23.5547 52C27.6473 52 30.6379 48.1533 29.65 44.2007L28.125 38.003V31.9922C28.125 31.1507 27.443 30.4688 26.6016 30.4688H25.0781V25.8984C25.0781 25.0586 25.7617 24.375 26.6016 24.375H44.8828C47.4028 24.375 49.4531 22.3247 49.4531 19.8047V13.7109C49.4531 11.1909 47.4028 9.14063 44.8828 9.14063H43.3594V4.57031ZM25.0781 33.5156V36.6641H22.0313V33.5156H25.0781ZM23.5547 48.9531C21.456 48.9531 19.9044 46.9834 20.4182 44.9287L21.702 39.7109H25.4074L26.6924 44.9343C27.2026 46.9746 25.6609 48.9531 23.5547 48.9531ZM8.32031 3.04688H38.7891C39.6289 3.04688 40.3125 3.73044 40.3125 4.57031V6.09375H35.7422C34.2616 6.09375 32.3684 6.64838 30.1761 7.29028C27.2149 8.15753 23.859 9.14063 20.5078 9.14063C17.2412 9.14063 14.9381 8.18649 12.9061 7.34503C11.3525 6.70154 9.88541 6.09375 8.32031 6.09375H6.79688V4.57031C6.79688 3.73044 7.48044 3.04688 8.32031 3.04688ZM40.3125 13.7109C40.3125 14.5508 39.6289 15.2344 38.7891 15.2344H8.32031C7.48044 15.2344 6.79688 14.5508 6.79688 13.7109V9.14063H8.32031C9.27921 9.14063 10.3654 9.59052 11.7401 10.1598C13.9209 11.0632 16.6349 12.1875 20.5078 12.1875C24.2962 12.1875 28.031 11.0933 31.0326 10.2146C32.9179 9.66232 34.6988 9.14063 35.7422 9.14063H40.3125V13.7109Z"/>
  </symbol>
  <symbol id="services-icon-5" viewBox="0 0 53 52">
      <path d="M28.9219 21.0938C26.9645 21.0938 25.2653 21.9855 24 23.6748C22.7344 21.9855 21.0352 21.0938 19.0781 21.0938C15.423 21.0938 12.75 24.0978 12.75 27.7841C12.75 32.5499 17.369 35.5437 23.0848 40.4425C23.3481 40.6681 23.6741 40.7813 24 40.7809C24.3259 40.7809 24.6519 40.6681 24.9152 40.4425C30.6379 35.5375 35.25 32.5481 35.25 27.7841C35.25 24.1007 32.5796 21.0938 28.9219 21.0938ZM24 37.5286C18.85 33.178 15.5625 30.832 15.5625 27.7841C15.5625 25.5732 17.0739 23.9063 19.0781 23.9063C21.6844 23.9063 22.6069 26.9652 22.6472 27.1036C22.8193 27.7075 23.3712 28.125 24 28.125C24.6306 28.125 25.184 27.705 25.3539 27.0978C25.363 27.0659 26.2782 23.9063 28.9219 23.9063C30.9258 23.9063 32.4375 25.5732 32.4375 27.7841C32.4375 30.8346 29.1456 33.1816 24 37.5286Z"/>
      <path d="M46.5934 45.188H42.3746V23.3447C42.3827 23.3505 42.3907 23.356 42.3988 23.3619C43.0203 23.8075 43.8842 23.6746 44.343 23.063L47.7188 18.5641C47.9451 18.262 48.0406 17.8819 47.9843 17.5087C47.9275 17.1355 47.7231 16.8008 47.417 16.58C47.1921 16.4178 24.9437 0.354281 24.8298 0.271883C24.3369 -0.0884687 23.6678 -0.0892012 23.1742 0.268953C23.1064 0.318026 18.8573 3.38578 14.0625 6.84794V4.21964C14.0625 3.44291 13.433 2.81339 12.6562 2.81339H7.03125C6.25452 2.81339 5.625 3.44291 5.625 4.21964V12.9399C2.74146 15.0218 0.651123 16.5309 0.583008 16.58C0.277222 16.8008 0.072876 17.1355 0.0161133 17.5087C-0.0406494 17.8819 0.0549317 18.2624 0.281616 18.5641L3.65698 23.063C4.11584 23.6746 4.97974 23.8075 5.6012 23.3619C5.60925 23.356 5.61694 23.3505 5.625 23.3447V45.1884H1.40625C0.629517 45.1884 0 45.8179 0 46.5947C0 47.371 0.629517 48.0009 1.40625 48.0009H46.5934C47.3701 48.0009 47.9996 47.371 47.9996 46.5947C47.9996 45.8179 47.3701 45.188 46.5934 45.188ZM8.4375 5.62589H11.25V8.87858C10.2975 9.56632 9.35083 10.2497 8.4375 10.9089V5.62589ZM5.08081 20.2743L3.39075 18.0218C17.5712 7.78361 22.3722 4.31705 24 3.14151C26.2672 4.77884 33.1714 9.76371 44.6093 18.0218L42.9196 20.2743C42.7793 20.174 24.98 7.4108 24.8225 7.29764C24.3311 6.94315 23.6678 6.94388 23.1771 7.29801C22.8582 7.52726 5.48254 19.9861 5.08081 20.2743ZM8.4375 21.3279C18.7676 13.9209 22.5864 11.1828 24 10.1687C25.9102 11.5387 31.1199 15.2745 39.5625 21.3279V45.1884H8.4375V21.3279Z"/>
    </g>
  </symbol>
  <symbol id="services-icon-6" viewBox="0 0 48 48">
      <path d="M45.1875 34.0856V29.625C45.1875 24.9949 43.6945 20.594 40.87 16.8982C38.3629 13.6176 34.8964 11.1016 31.026 9.73163C30.9183 7.50066 29.0697 5.71875 26.8125 5.71875H21.1875C18.9303 5.71875 17.0817 7.50066 16.974 9.73163C13.1036 11.1016 9.63713 13.6176 7.12997 16.8982C4.30547 20.594 2.8125 24.9949 2.8125 29.625V34.0856C1.17572 34.6661 0 36.2292 0 38.0625C0 40.3887 1.89253 42.2812 4.21875 42.2812H43.7812C46.1075 42.2812 48 40.3887 48 38.0625C48 36.2292 46.8243 34.6661 45.1875 34.0856ZM5.625 29.625C5.625 24.554 7.79119 19.8068 11.3438 16.4198V21.1875C11.3438 21.9641 11.9734 22.5938 12.75 22.5938C13.5266 22.5938 14.1562 21.9641 14.1562 21.1875V14.2141C15.0424 13.6484 15.9822 13.1549 16.9688 12.7442V24C16.9688 24.7766 17.5984 25.4062 18.375 25.4062C19.1516 25.4062 19.7812 24.7766 19.7812 24V10.7749C19.7813 10.771 19.7812 10.7672 19.7812 10.7633V9.9375C19.7812 9.16209 20.4121 8.53125 21.1875 8.53125H26.8125C27.5879 8.53125 28.2188 9.16209 28.2188 9.9375V10.763C28.2188 10.767 28.2187 10.7709 28.2188 10.775V24C28.2188 24.7766 28.8484 25.4062 29.625 25.4062C30.4016 25.4062 31.0312 24.7766 31.0312 24V12.7442C32.0178 13.155 32.9576 13.6485 33.8438 14.2141V21.1875C33.8438 21.9641 34.4734 22.5938 35.25 22.5938C36.0266 22.5938 36.6562 21.9641 36.6562 21.1875V16.4198C40.2088 19.8068 42.375 24.554 42.375 29.625V33.8438H5.625V29.625ZM43.7812 39.4688H4.21875C3.44334 39.4688 2.8125 38.8379 2.8125 38.0625C2.8125 37.2871 3.44334 36.6562 4.21875 36.6562H43.7812C44.5567 36.6562 45.1875 37.2871 45.1875 38.0625C45.1875 38.8379 44.5567 39.4688 43.7812 39.4688Z"/>
  </symbol>
  <symbol id="services-icon-7" viewBox="0 0 48 48">
     <path d="M44.0166 29.7188C44.6859 28.9716 45.0938 27.9853 45.0938 26.9062C45.0938 24.5803 43.2009 22.6875 40.875 22.6875H32.6869C33.4978 20.2266 33.8438 16.9613 33.8438 15.5616V14.1562C33.8438 11.055 31.32 8.53125 28.2188 8.53125H26.8125C26.1675 8.53125 25.605 8.97 25.4484 9.59625L24.6825 12.6609C23.6091 16.9528 20.2013 21.6881 16.6744 22.5487C16.0566 20.985 14.5312 19.875 12.75 19.875H4.3125C3.53625 19.875 2.90625 20.505 2.90625 21.2812V46.5938C2.90625 47.37 3.53625 48 4.3125 48H12.75C14.4272 48 15.8784 47.0166 16.5581 45.5953L21.39 47.2059C22.9697 47.7328 24.6159 48 26.2819 48H38.0625C40.3884 48 42.2812 46.1072 42.2812 43.7812C42.2812 43.2328 42.1763 42.7078 41.985 42.2269C43.7738 41.7384 45.0938 40.0987 45.0938 38.1562C45.0938 37.0772 44.6859 36.0909 44.0166 35.3438C44.6859 34.5966 45.0938 33.6103 45.0938 32.5312C45.0938 31.4522 44.6859 30.4659 44.0166 29.7188ZM14.1562 43.7812C14.1562 44.5566 13.5253 45.1875 12.75 45.1875H5.71875V22.6875H12.75C13.5253 22.6875 14.1562 23.3184 14.1562 24.0938V43.7812ZM38.0625 31.125H40.875C41.6503 31.125 42.2812 31.7559 42.2812 32.5312C42.2812 33.3066 41.6503 33.9375 40.875 33.9375H38.0625C37.2863 33.9375 36.6562 34.5675 36.6562 35.3438C36.6562 36.12 37.2863 36.75 38.0625 36.75H40.875C41.6503 36.75 42.2812 37.3809 42.2812 38.1562C42.2812 38.9316 41.6503 39.5625 40.875 39.5625H38.0625C37.2863 39.5625 36.6562 40.1925 36.6562 40.9688C36.6562 41.745 37.2863 42.375 38.0625 42.375C38.8378 42.375 39.4688 43.0059 39.4688 43.7812C39.4688 44.5566 38.8378 45.1875 38.0625 45.1875H26.2819C24.9187 45.1875 23.5716 44.9691 22.2787 44.5378L16.9688 42.7678V25.3669C19.1747 24.9478 21.3337 23.5509 23.2828 21.2644C25.1859 19.0313 26.7291 16.0706 27.4106 13.3434L27.9103 11.3438H28.2188C29.7694 11.3438 31.0312 12.6056 31.0312 14.1562V15.5616C31.0312 17.4497 30.4406 21.0712 29.685 22.6875H26.8125C26.0362 22.6875 25.4062 23.3175 25.4062 24.0938C25.4062 24.87 26.0362 25.5 26.8125 25.5H40.875C41.6503 25.5 42.2812 26.1309 42.2812 26.9062C42.2812 27.6816 41.6503 28.3125 40.875 28.3125H38.0625C37.2863 28.3125 36.6562 28.9425 36.6562 29.7188C36.6562 30.495 37.2863 31.125 38.0625 31.125Z"/>
    <path d="M9.9375 42.375C10.7142 42.375 11.3438 41.7454 11.3438 40.9688C11.3438 40.1921 10.7142 39.5625 9.9375 39.5625C9.16085 39.5625 8.53125 40.1921 8.53125 40.9688C8.53125 41.7454 9.16085 42.375 9.9375 42.375Z"/>
    <path d="M29.625 0C28.8484 0 28.2188 0.629625 28.2188 1.40625V4.3125C28.2188 5.08913 28.8484 5.71875 29.625 5.71875C30.4016 5.71875 31.0312 5.08913 31.0312 4.3125V1.40625C31.0312 0.629625 30.4016 0 29.625 0Z"/>
    <path d="M23.6589 6.20139L21.6701 4.21267C21.1211 3.66348 20.2306 3.66348 19.6814 4.21267C19.1322 4.76186 19.1322 5.6522 19.6814 6.20139L21.6701 8.19011C22.2192 8.7392 23.1098 8.7393 23.6589 8.19011C24.2081 7.64092 24.2081 6.75058 23.6589 6.20139Z"/>
    <path d="M39.569 4.21267C39.0199 3.66348 38.1295 3.66348 37.5803 4.21267L35.5916 6.2013C35.0424 6.75049 35.0424 7.64083 35.5916 8.19002C36.1407 8.73921 37.0311 8.7393 37.5803 8.19011L39.569 6.20139C40.1182 5.6522 40.1182 4.76186 39.569 4.21267Z"/>
  </symbol>
  <symbol id="arrow-left" viewBox="0 0 18 12">
    <path d="M6.20711 11.2071C5.81658 11.5976 5.18342 11.5976 4.79289 11.2071L0.292892 6.70711C-0.0976315 6.31658 -0.0976315 5.68342 0.292892 5.29289L4.79289 0.792893C5.18342 0.402369 5.81658 0.402369 6.20711 0.792893C6.59763 1.18342 6.59763 1.81658 6.20711 2.20711L3.41421 5L17 5C17.5523 5 18 5.44772 18 6C18 6.55228 17.5523 7 17 7L3.41421 7L6.20711 9.79289C6.59763 10.1834 6.59763 10.8166 6.20711 11.2071Z"/>
  </symbol>
  <symbol id="arrow-right" viewBox="0 0 18 12">
    <path d="M11.7929 0.792893C12.1834 0.402369 12.8166 0.402369 13.2071 0.792893L17.7071 5.29289C18.0976 5.68342 18.0976 6.31658 17.7071 6.70711L13.2071 11.2071C12.8166 11.5976 12.1834 11.5976 11.7929 11.2071C11.4024 10.8166 11.4024 10.1834 11.7929 9.79289L14.5858 7H1C0.447715 7 0 6.55228 0 6C0 5.44772 0.447715 5 1 5H14.5858L11.7929 2.20711C11.4024 1.81658 11.4024 1.18342 11.7929 0.792893Z"/>
  </symbol>
</svg>