<?xml version="1.0" standalone="no"?>
<!DOCTYPE svg PUBLIC "-//W3C//DTD SVG 20010904//EN"
 "http://www.w3.org/TR/2001/REC-SVG-20010904/DTD/svg10.dtd">
<svg version="1.0" xmlns="http://www.w3.org/2000/svg"
 width="75.000000pt" height="75.000000pt" viewBox="0 0 75.000000 75.000000"
 preserveAspectRatio="xMidYMid meet">
<metadata>
Created by potrace 1.14, written by Peter Selinger 2001-2017
</metadata>
<g transform="translate(0.000000,75.000000) scale(0.100000,-0.100000)"
fill="#000000" stroke="none">
<path d="M300 700 c-73 -55 -80 -58 -75 -31 2 11 -2 24 -8 29 -18 13 -106 12
-114 -1 -4 -7 -8 -43 -8 -81 -1 -55 -5 -72 -21 -83 -10 -8 -30 -23 -44 -33
-23 -17 -24 -20 -10 -46 8 -15 28 -41 44 -58 l29 -31 1 -153 c1 -84 -1 -156
-4 -160 -3 -4 -20 -8 -39 -9 -39 -2 -46 -7 -38 -28 6 -13 51 -15 362 -15 317
0 356 2 362 16 8 20 -10 31 -47 29 -16 -1 -31 3 -33 9 -2 6 -3 80 -2 165 1
126 4 155 16 162 25 13 70 85 64 100 -6 15 -348 269 -362 269 -4 0 -37 -23
-73 -50z m238 -120 c78 -58 141 -111 142 -118 1 -33 -37 -15 -161 77 -74 55
-138 101 -144 101 -5 0 -71 -45 -145 -100 -74 -55 -139 -99 -145 -97 -5 2 -10
11 -10 20 0 21 295 238 311 229 6 -4 75 -54 152 -112z m-358 57 c0 -23 -17
-47 -32 -47 -4 0 -8 16 -8 35 0 28 4 35 20 35 14 0 20 -7 20 -23z m323 -140
l107 -79 0 -187 0 -186 -235 0 -235 0 0 186 c0 182 1 187 23 203 12 9 64 47
116 86 55 41 99 66 106 62 6 -4 59 -42 118 -85z"/>
<path d="M246 399 c-67 -53 -54 -126 37 -212 91 -87 86 -86 165 -18 94 81 117
140 81 207 -23 44 -91 57 -130 25 -23 -19 -24 -19 -48 0 -31 25 -72 24 -105
-2z m75 -30 c11 -5 24 -21 29 -35 11 -29 36 -32 45 -4 4 11 17 28 31 36 22 15
26 15 49 0 19 -12 25 -25 25 -50 0 -28 -10 -44 -57 -90 -32 -31 -62 -56 -68
-56 -14 1 -100 81 -114 107 -18 34 -13 70 11 87 27 19 24 19 49 5z"/>
</g>
</svg>
